<svg version="1.2" xmlns="http://www.w3.org/2000/svg" viewBox="0 0 26 24" width="26" height="24"><style>.a{fill:#ef5b70}</style><path class="a" d="m0 1c0-0.6 0.4-1 1-1h3.4c0.5 0 0.9 0.3 1 0.7l3.9 14.5h10.7l3.6-8.4h-11.9c-0.5 0-1-0.4-1-0.9 0-0.6 0.5-1 1-1h13.3c0.4 0 0.7 0.2 0.8 0.4 0.2 0.3 0.2 0.7 0.1 1l-4.4 10.2c-0.1 0.4-0.5 0.6-0.9 0.6h-12c-0.5 0-0.8-0.3-1-0.7l-3.9-14.4h-2.7c-0.6 0-1-0.5-1-1zm5.5 20.8c0-1.2 1-2.2 2.2-2.2 1.2 0 2.1 1 2.1 2.2 0 1.2-0.9 2.2-2.1 2.2-1.2 0-2.2-1-2.2-2.2zm13.6 0.1c-0.1-1.2 0.8-2.3 2-2.3 1.2-0.1 2.3 0.8 2.4 2 0 0.6-0.2 1.2-0.6 1.6-0.3 0.5-0.9 0.8-1.5 0.8q0 0-0.1 0c-1.2 0-2.1-0.9-2.2-2.1z"/></svg>