<svg version="1.2" xmlns="http://www.w3.org/2000/svg" viewBox="0 0 33 29" width="33" height="29"><style>.a{fill:#222}</style><path class="a" d="m1 1.2c0-0.7 0.5-1.2 1.2-1.2h4.3c0.5 0 1 0.4 1.1 0.9l4.8 17.4h13.2l4.4-10h-14.6c-0.7 0-1.2-0.6-1.2-1.2 0-0.7 0.5-1.2 1.2-1.2h16.4c0.4 0 0.8 0.2 1 0.5 0.2 0.4 0.3 0.8 0.1 1.2l-5.4 12.4c-0.2 0.4-0.6 0.7-1.1 0.7h-14.8c-0.6 0-1.1-0.4-1.2-0.9l-4.8-17.4h-3.4c-0.7 0-1.2-0.6-1.2-1.2zm6.7 25.1c0-1.5 1.2-2.7 2.7-2.7 1.5 0 2.7 1.2 2.7 2.7 0 1.5-1.2 2.7-2.7 2.7-1.5 0-2.7-1.2-2.7-2.7zm16.8 0.2c-0.1-1.5 1-2.8 2.5-2.9 1.5-0.1 2.8 1.1 2.9 2.5 0 0.8-0.2 1.4-0.7 2-0.4 0.5-1.1 0.8-1.8 0.9q-0.1 0-0.2 0c-1.4 0-2.6-1.1-2.7-2.5z"/></svg>